<?xml version="1.0" encoding="utf-8"?>
<!-- Generator: Adobe Illustrator 23.0.1, SVG Export Plug-In . SVG Version: 6.00 Build 0)  -->
<svg version="1.1" id="Layer_1" xmlns="http://www.w3.org/2000/svg" xmlns:xlink="http://www.w3.org/1999/xlink" x="0px" y="0px"
	 viewBox="0 0 300 300" style="enable-background:new 0 0 300 300;" xml:space="preserve">
<style type="text/css">
	.st0{fill:#872676;}
	.st1{fill:#020202;}
	.st2{fill:#EE3426;}
	.st3{fill:#B22825;}
	.st4{fill:#FEDC00;}
	.st5{fill:#18140E;}
	.st6{fill:#FFC52A;}
	.st7{fill:#008752;}
	.st8{fill:#8FC640;}
	.st9{fill:#FFFFFF;}
	.st10{fill:#010101;}
</style>
<g>
	<path class="st0" d="M199.22,153.11c0,33.3-24.6,61.18-59.32,60.29c-32.75-0.84-59.32-26.99-59.32-60.29
		c0-33.3,26.59-59.68,59.32-61.2C195.1,84.42,212.51,132.24,199.22,153.11"/>
	<path class="st1" d="M141.51,213.96c-0.54,0-1.08-0.01-1.62-0.02c-33.56-0.86-59.85-27.58-59.85-60.84
		c0-33.06,26.28-60.18,59.84-61.74c3.83-0.52,7.64-0.79,11.29-0.79c21.19,0,38.41,9.25,47.27,25.39c6.92,12.6,7.44,27.57,1.34,37.3
		c-0.04,16.23-5.82,31.38-16.3,42.66C172.67,207.56,157.77,213.96,141.51,213.96 M151.17,91.66c-3.6,0-7.36,0.26-11.19,0.79
		c-33.02,1.54-58.85,28.18-58.85,60.66c0,32.66,25.82,58.9,58.79,59.74c0.54,0.02,1.06,0.02,1.59,0.02
		c32.59,0,57.16-25.69,57.16-59.77v-0.16l0.09-0.13c5.99-9.41,5.48-24.01-1.29-36.33C188.82,100.71,171.94,91.66,151.17,91.66"/>
	<path class="st0" d="M100.14,145.98c-1.54,20.22-6.51,59.52,41.43,59.52c32.91,0,46.77-29.92,50.42-33.42
		c10.84-10.37,6.47-71.78-30.2-70.72C113.34,98.55,97.39,111.19,100.14,145.98"/>
	<path class="st1" d="M141.58,206.04L141.58,206.04c-14.96,0-26.12-3.88-33.18-11.53c-11.66-12.62-10.04-32.87-8.98-46.26l0.18-2.31
		c-1.23-15.51,1.3-26.13,7.96-33.34c7.67-8.3,21.03-12.16,42.04-12.16c3.78,0,7.89,0.13,12.23,0.38c0.27-0.01,0.59-0.01,0.91-0.01
		c13.19,0,23.81,8.38,29.92,23.6c7.46,18.6,6.09,41.98-0.28,48.07c-0.56,0.53-1.46,1.86-2.6,3.54
		C183.66,185,169.35,206.04,141.58,206.04 M149.59,101.53c-20.68,0-33.79,3.75-41.23,11.81c-6.44,6.97-8.88,17.32-7.67,32.59
		l-0.18,2.4c-1.05,13.21-2.64,33.16,8.69,45.44c6.85,7.42,17.74,11.18,32.38,11.18h0.01c27.2,0,41.28-20.71,47.29-29.55
		c1.22-1.8,2.11-3.1,2.75-3.71c6.12-5.86,7.34-28.64,0.02-46.87c-4.2-10.46-12.62-22.92-28.91-22.92c-0.31,0-0.61,0-0.92,0.01
		C157.44,101.66,153.35,101.53,149.59,101.53"/>
	<path class="st1" d="M110.37,171.82c0,0,4.11,27.95,33.21,27.46c23.04-0.39,34.02-22.41,34.53-23.83
		c0.52-1.43,27.17-77.2-36.54-66.45C77.86,119.75,110.37,171.82,110.37,171.82"/>
	<path class="st1" d="M142.83,199.83L142.83,199.83c-27.62,0-32.64-25.87-32.97-27.82c-0.98-1.63-13.68-23.33-5.64-41.21
		c5.19-11.53,17.73-19.05,37.27-22.34c17.73-2.99,30.26,0.46,37.09,10.21c13.52,19.29,0.19,56.59,0.06,56.96
		c-0.09,0.24-11.01,23.78-35.04,24.19C143.33,199.83,143.08,199.83,142.83,199.83 M153.07,108.5c-3.49,0-7.33,0.35-11.41,1.04
		c-19.16,3.23-31.42,10.54-36.45,21.71c-8.08,17.95,5.49,40.06,5.62,40.28l0.08,0.21c0.04,0.27,4.32,27,31.91,27h0
		c0.25,0,0.49,0,0.74-0.01c23.34-0.39,33.95-23.24,34.03-23.47c0.13-0.37,13.26-37.13,0.07-55.96
		C172.66,112.14,164.38,108.5,153.07,108.5"/>
	<path class="st2" d="M40.83,180.99l211.1-5.01l1.8-42.7c0,0-31.7-19.56-113.98-18.29c-82.28,1.28-98.92,15.06-98.92,15.06V180.99z"
		/>
	<polygon class="st3" points="52.02,151.19 54.37,150.31 54.37,139.25 58.11,147.62 61.5,138.52 61.5,148.17 64.12,147.58 
		64.12,128.74 61.75,129.33 57.84,140.29 54.11,131.37 52.02,131.74 	"/>
	<polygon class="st3" points="70.04,146.12 67.31,146.62 67.31,127.96 70.04,127.5 	"/>
	<path class="st3" d="M79.32,131.37l2.46-0.64c0,0-1.37-4.28-4.28-4.28c-2.91,0-5.69,3.5-5.69,10.38c0,5.78,2.9,8.09,5.38,7.95
		c1.78-0.1,3.92-1.09,3.92-1.09v-9.64l-3.92,0.77v2.59l1.77-0.36v4.83c0,0-0.9,0.36-1.77,0.36c-0.87,0-2.99-1.09-2.98-5.87
		c0.01-4.78,1.94-7.15,2.98-7.19C78.23,129.14,79.32,130.37,79.32,131.37"/>
	<polygon class="st3" points="85.92,142.71 83.78,143.25 83.78,124.96 85.92,124.73 	"/>
	<polygon class="st3" points="91.74,141.89 89.59,142.11 89.59,123.91 91.74,123.75 	"/>
	<polygon class="st3" points="99.8,140.29 97.18,140.57 97.18,123.87 99.8,123.66 	"/>
	<polygon class="st3" points="90.89,136.94 85.12,137.67 84.73,135.27 90.5,134.54 	"/>
	<polygon class="st3" points="102.81,125.41 93.7,126.05 93.7,123.48 102.81,122.85 	"/>
	<polygon class="st3" points="103.87,122.85 106.08,122.59 108.81,127.95 111.45,121.99 113.96,121.68 110.13,130.55 110.13,139.06 
		107.9,139.34 107.9,131.05 	"/>
	<polygon class="st4" points="58.66,138.22 54.93,129.3 52.83,129.67 52.83,149.12 55.19,148.24 55.19,137.18 58.93,145.55 
		62.32,136.45 62.32,146.09 64.94,145.5 64.94,126.66 62.57,127.25 	"/>
	<path class="st5" d="M52.56,149.52v-20.08l2.54-0.44l3.54,8.47l3.72-10.44l2.85-0.71v19.41l-3.17,0.71v-8.46l-3.09,8.3l-3.49-7.81
		v9.97L52.56,149.52z M53.11,129.9v18.83l1.8-0.67v-12.16l4,8.94l3.69-9.9v10.83l2.07-0.47v-18.27l-1.88,0.47l-4.1,11.5l-3.92-9.37
		L53.11,129.9z"/>
	<polygon class="st4" points="68.13,144.55 70.86,144.05 70.86,125.43 68.13,125.89 	"/>
	<path class="st5" d="M67.85,144.88v-19.22l3.28-0.55v19.17L67.85,144.88z M68.4,126.12v18.1l2.18-0.4v-18.06L68.4,126.12z"/>
	<path class="st4" d="M78.01,127.12c1.04-0.05,2.13,1.18,2.13,2.18l2.46-0.64c0,0-1.37-4.28-4.28-4.28c-2.91,0-5.69,3.5-5.69,10.38
		c0,5.78,2.9,8.09,5.38,7.96c1.77-0.1,3.92-1.09,3.92-1.09v-9.64l-3.92,0.77v2.59l1.77-0.36v4.82c0,0-0.9,0.36-1.77,0.36
		c-0.87,0-2.99-1.09-2.98-5.87C75.04,129.53,76.97,127.16,78.01,127.12"/>
	<path class="st5" d="M77.8,143c-1.12,0-2.21-0.46-3.1-1.3c-1.07-1.01-2.34-3.03-2.34-6.93c0-3.25,0.62-5.98,1.79-7.91
		c1.08-1.77,2.56-2.74,4.17-2.74c3.08,0,4.48,4.29,4.54,4.47l0.09,0.28l-3.08,0.8v-0.36c0-0.44-0.27-0.99-0.69-1.39
		c-0.36-0.35-0.79-0.54-1.15-0.52h0c-0.77,0.03-2.7,2.14-2.72,6.92c-0.01,2.89,0.77,4.29,1.43,4.95c0.48,0.48,0.97,0.65,1.27,0.65
		c0.59,0,1.2-0.18,1.49-0.28v-4.29l-1.77,0.36v-3.16l4.47-0.88v10.15l-0.16,0.07c-0.09,0.04-2.21,1.02-4.02,1.12
		C77.95,143,77.88,143,77.8,143z M78.32,124.66c-1.41,0-2.73,0.88-3.7,2.48c-1.12,1.84-1.71,4.47-1.71,7.62
		c0,3.7,1.18,5.6,2.17,6.53c0.84,0.8,1.88,1.21,2.92,1.15c1.43-0.08,3.13-0.77,3.66-0.99v-9.13l-3.37,0.67v2.03l1.77-0.36V140
		l-0.17,0.07c-0.04,0.02-0.96,0.38-1.87,0.38c-0.2,0-0.91-0.06-1.66-0.81c-0.73-0.73-1.6-2.25-1.59-5.34
		c0.01-4.72,1.92-7.41,3.24-7.47h0c0.53-0.02,1.08,0.22,1.56,0.68c0.43,0.41,0.73,0.94,0.83,1.44l1.86-0.48
		C81.88,127.56,80.59,124.66,78.32,124.66z"/>
	<polygon class="st4" points="90.41,132.58 86.74,133.05 86.74,122.66 84.59,122.89 84.59,141.18 86.74,140.63 86.74,135.5 
		90.41,135.04 90.41,140.04 92.55,139.81 92.55,121.68 90.41,121.84 	"/>
	<path class="st5" d="M84.32,141.53v-18.89l2.7-0.29v10.38l3.12-0.4v-10.76l2.7-0.2v18.68l-2.7,0.29v-5l-3.12,0.39v5.11
		L84.32,141.53z M84.87,123.13v17.69l1.6-0.41v-5.16l4.22-0.53v5.01l1.6-0.17v-17.59l-1.6,0.12v10.73l-4.22,0.54v-10.4L84.87,123.13
		z"/>
	<polygon class="st4" points="94.52,123.98 98,123.73 98,138.49 100.62,138.22 100.62,123.55 103.63,123.34 103.63,120.77 
		94.52,121.41 	"/>
	<path class="st5" d="M97.73,138.8v-14.77l-3.48,0.24v-3.12l9.65-0.68v3.12l-3.01,0.21v14.66L97.73,138.8z M98.28,123.44v14.75
		l2.07-0.21v-14.68l3.01-0.21v-2.01l-8.55,0.6v2.02L98.28,123.44z"/>
	<polygon class="st4" points="112.27,119.92 109.63,125.88 106.9,120.52 104.69,120.77 108.72,128.98 108.72,137.27 110.95,136.99 
		110.95,128.48 114.78,119.61 	"/>
	<path class="st5" d="M108.45,137.58v-8.53l-4.17-8.5l2.79-0.32l2.55,5.01l2.47-5.57l3.13-0.39l-3.99,9.26v8.7L108.45,137.58z
		 M105.11,121l3.89,7.92v8.04l1.68-0.21v-8.32l3.66-8.49l-1.87,0.23l-2.81,6.35l-2.91-5.7L105.11,121z"/>
	<polygon class="st3" points="171.16,129.05 173.66,135.83 175.14,135.83 178.01,129.05 178.01,136.56 180.77,136.56 180.77,123.28 
		178.3,123.28 174.52,130.77 171.16,122.54 169.03,122.54 169.03,137.15 171.16,136.49 	"/>
	<path class="st3" d="M188.18,123.62c-3.18,0-5.76,3.89-5.76,8.69c0,4.8,2.58,8.69,5.76,8.69c3.18,0,5.76-3.89,5.76-8.69
		C193.94,127.51,191.36,123.62,188.18,123.62 M188.19,138.18c-1.95,0-3.53-2.79-3.53-6.22c0-3.43,1.58-6.22,3.53-6.22
		c1.95,0,3.54,2.79,3.54,6.22C191.73,135.39,190.15,138.18,188.19,138.18"/>
	<polygon class="st3" points="197.96,142.96 195.58,142.42 195.58,125.09 197.96,125.98 	"/>
	<polygon class="st3" points="208.92,145.09 206.54,144.55 206.54,126.64 208.92,128.11 	"/>
	<path class="st3" d="M197.86,135.83c0,0,4.32,0.28,4.32-3.72c0-4-4.22-4.44-4.22-4.44l-2.38-2.58c0,0,8.8-0.12,8.8,6.85
		c0,6.97-6.42,6.04-6.42,6.04L197.2,137L197.86,135.83z"/>
	<polygon class="st3" points="199.04,137.66 202.53,143.55 205.25,143.85 201.47,136.93 	"/>
	<path class="st3" d="M208.92,129.84c0,0,3.5,0.19,3.37,4.06c-0.12,3.88-3.37,4.35-3.37,4.35l-0.82,1.13l0.82,1.42
		c0,0,5.61-0.89,5.61-6.9c0-6.01-5.69-7.26-7.99-7.26l1.02,2.85L208.92,129.84z"/>
	<polygon class="st3" points="219.07,147.01 216.6,146.42 216.6,128.6 219.07,129.29 	"/>
	<polygon class="st3" points="226.07,148.63 223.59,148.04 223.59,130.22 226.07,130.91 	"/>
	<polygon class="st3" points="231.06,150.64 228.58,150.05 228.58,131.6 231.06,132.29 	"/>
	<polygon class="st3" points="235.62,152.14 233.14,151.55 233.14,133.1 235.38,133.51 	"/>
	<polygon class="st3" points="244.08,156.27 241.6,154.83 241.6,135.97 244.08,136.66 	"/>
	<polygon class="st3" points="224.4,144.07 217.82,142.95 218.08,140.2 224.66,141.31 	"/>
	<polygon class="st3" points="235.38,133.51 242.17,148.48 241.6,154.83 235.03,139.77 	"/>
	<polygon class="st4" points="173.61,128.49 170.25,120.27 168.11,120.27 168.11,134.87 170.25,134.22 170.25,126.77 172.75,133.56 
		174.22,133.56 177.09,126.77 177.09,134.28 179.86,134.28 179.86,121 177.39,121 	"/>
	<path class="st5" d="M167.84,135.24v-15.25h2.59l3.2,7.84l3.58-7.1h2.91v13.83h-3.31v-6.43l-2.41,5.7h-1.85l-2.04-5.52v6.11
		L167.84,135.24z M168.39,120.54v13.96l1.58-0.48v-8.78l2.97,8.05h1.1l3.33-7.87v8.59h2.21v-12.73h-2.02l-3.97,7.87l-3.52-8.61
		H168.39z"/>
	<path class="st4" d="M187.27,121.35c-3.18,0-5.76,3.89-5.76,8.69c0,4.8,2.58,8.69,5.76,8.69c3.18,0,5.76-3.89,5.76-8.69
		C193.03,125.24,190.45,121.35,187.27,121.35 M187.28,135.9c-1.95,0-3.53-2.79-3.53-6.22c0-3.44,1.58-6.22,3.53-6.22
		c1.95,0,3.53,2.79,3.53,6.22C190.82,133.12,189.23,135.9,187.28,135.9"/>
	<path class="st5" d="M187.27,139c-3.33,0-6.03-4.02-6.03-8.97c0-4.94,2.71-8.96,6.03-8.96c3.33,0,6.03,4.02,6.03,8.96
		C193.3,134.98,190.59,139,187.27,139z M187.27,121.62c-3.02,0-5.48,3.77-5.48,8.41c0,4.64,2.46,8.42,5.48,8.42
		c3.02,0,5.48-3.77,5.48-8.42C192.75,125.4,190.29,121.62,187.27,121.62z M187.28,136.18c-2.14,0-3.81-2.85-3.81-6.5
		c0-3.64,1.67-6.5,3.81-6.5c2.14,0,3.81,2.85,3.81,6.5c0,1.71-0.38,3.32-1.07,4.54C189.3,135.48,188.33,136.18,187.28,136.18z
		 M187.28,123.73c-1.8,0-3.26,2.67-3.26,5.95c0,3.28,1.46,5.95,3.26,5.95c0.84,0,1.64-0.6,2.26-1.68c0.64-1.13,1-2.65,1-4.26
		C190.54,126.4,189.08,123.73,187.28,123.73z"/>
	<path class="st4" d="M203.47,129.67c0-6.97-8.8-6.85-8.8-6.85v17.33l2.38,0.54v-4.98c0,0,0.53,0.08,1.28,0.02l3.28,5.55l2.73,0.3
		l-3.56-6.52C202.19,134.31,203.47,132.77,203.47,129.67 M197.05,133.56v-8.16c0,0,4.22,0.44,4.22,4.44
		C201.27,133.5,197.66,133.57,197.05,133.56"/>
	<path class="st5" d="M204.83,141.9l-3.39-0.37l-3.27-5.52c-0.35,0.02-0.65,0.01-0.86,0v5.02l-2.93-0.66v-17.82l0.27,0
		c0.19,0,4.66-0.04,7.27,2.54c1.2,1.18,1.8,2.72,1.8,4.58c0,2.62-0.87,4.47-2.59,5.5L204.83,141.9z M201.78,141.02l2.07,0.22
		l-3.44-6.3l0.25-0.13c1.68-0.89,2.54-2.63,2.54-5.15c0-1.7-0.55-3.11-1.64-4.19c-2.09-2.07-5.61-2.34-6.61-2.38v16.83l1.83,0.41
		v-4.95l0.31,0.04c0,0,0.51,0.07,1.22,0.02l0.17-0.01L201.78,141.02z M197.15,133.84c-0.04,0-0.07,0-0.1,0l-0.27-0.01v-8.74
		l0.3,0.03c0.04,0,4.47,0.52,4.47,4.72c0,1.18-0.36,2.12-1.06,2.81C199.39,133.72,197.76,133.84,197.15,133.84z M197.32,125.72v7.56
		c0.6-0.02,1.91-0.18,2.78-1.03c0.59-0.58,0.89-1.39,0.89-2.41c0-1.55-0.66-2.73-1.97-3.48C198.36,125.97,197.7,125.8,197.32,125.72
		z"/>
	<path class="st4" d="M205.63,124.37v17.91l2.38,0.54v-4.29c0,0,5.61-0.88,5.61-6.9C213.62,125.62,207.93,124.37,205.63,124.37
		 M208.01,135.97v-8.41c0,0,3.5,0.19,3.38,4.06C211.26,135.51,208.01,135.97,208.01,135.97"/>
	<path class="st5" d="M208.29,143.16l-2.93-0.66v-18.41h0.27c1.32,0,3.32,0.37,5,1.42c2.13,1.33,3.26,3.45,3.26,6.12
		c0,5.46-4.52,6.86-5.61,7.12V143.16z M205.91,142.06l1.83,0.41v-4.18l0.23-0.04c0.22-0.04,5.38-0.93,5.38-6.63
		c0-5.34-4.71-6.89-7.43-6.98V142.06z M207.74,136.29v-9.01l0.29,0.02c0.04,0,3.77,0.25,3.64,4.35c-0.07,2.11-1.04,3.26-1.85,3.84
		c-0.87,0.63-1.73,0.76-1.76,0.77L207.74,136.29z M208.29,127.88v7.75c0.78-0.22,2.73-1.08,2.83-4.01
		C211.21,128.66,209.08,128.01,208.29,127.88z"/>
	<polygon class="st4" points="222.68,138.86 218.16,138.09 218.16,127.02 215.68,126.33 215.68,144.15 218.16,144.74 218.16,140.89 
		222.68,141.66 222.68,145.77 225.16,146.35 225.16,128.63 222.68,127.95 	"/>
	<path class="st5" d="M225.43,146.7l-3.03-0.72v-4.1l-3.97-0.67v3.87l-3.03-0.72v-18.4l3.03,0.84v11.05l3.97,0.67v-10.95l3.03,0.84
		V146.7z M222.95,145.55l1.93,0.46v-17.16l-1.93-0.54v10.87l-5.07-0.86v-11.1l-1.93-0.53v17.24l1.93,0.46v-3.83l5.07,0.86V145.55z"
		/>
	<polygon class="st4" points="227.67,147.77 230.15,148.36 230.15,130.01 227.67,129.32 	"/>
	<path class="st5" d="M230.43,148.71l-3.03-0.72v-19.03l3.03,0.84V148.71z M227.94,147.56l1.93,0.46v-17.8l-1.93-0.53V147.56z"/>
	<polygon class="st4" points="240.68,133.69 240.68,144.95 234.46,131.24 232.23,130.82 232.23,149.27 234.71,149.86 234.56,138.51 
		240.68,152.55 243.16,153.99 243.16,134.38 	"/>
	<path class="st5" d="M243.44,154.47l-2.97-1.72l-5.62-12.88l0.14,10.34l-3.04-0.72v-19l2.7,0.5l5.76,12.68v-10.35l3.03,0.84V154.47
		z M240.9,152.36l1.99,1.15v-18.93l-1.93-0.54v12.17l-6.69-14.74l-1.77-0.33v17.9l1.93,0.46l-0.17-12.36L240.9,152.36z"/>
	<path class="st1" d="M40.29,181.55v-51.76l0.2-0.16c0.69-0.57,17.73-13.92,99.26-15.19c81.53-1.27,113.97,18.18,114.28,18.37
		l0.27,0.17l-0.01,0.32l-1.82,43.21l-0.51,0.01L40.29,181.55z M41.38,130.32v50.1l210.03-4.99l1.76-41.87
		c-3.28-1.86-36.2-19.25-113.41-18.05C63.34,116.71,43.5,128.85,41.38,130.32"/>
	<path class="st2" d="M46.03,129.25c0,0,18.81-9.97,73.04-11.99l-2.37-5.28c0,0-61.32,2.18-81.06,12.74l3.73,5.55L46.03,129.25z"/>
	<path class="st1" d="M39.11,130.86l-4.02-5.98l0-0.49l0.29-0.15c19.63-10.49,78.79-12.71,81.3-12.8l0.37-0.01l2.85,6.35l-0.81,0.03
		c-53.42,1.99-72.62,11.83-72.8,11.93l-0.17,0.06L39.11,130.86z M36.43,124.92l3.2,4.76l6.23-0.95c1.46-0.72,21.08-9.98,72.38-11.98
		l-1.88-4.2C111.28,112.75,55.57,115.2,36.43,124.92"/>
	<polygon class="st2" points="46.03,129.25 46.03,167.24 35.64,158.17 35.64,124.72 	"/>
	<path class="st1" d="M46.57,168.44l-11.48-10.02v-34.03l0.52-0.28l10.96,4.78C46.57,128.9,46.57,168.44,46.57,168.44z
		 M36.18,157.92l9.3,8.11v-36.43l-9.3-4.06V157.92z"/>
	<path class="st2" d="M248.24,132.34c0,0-33.28-14.16-82.46-14.32l2.29-5.21c0,0,57.51,1.36,91.16,15.86l-3.38,4.6L248.24,132.34z"
		/>
	<path class="st1" d="M256.1,133.85l-8.08-1.01c-0.33-0.14-33.76-14.12-82.25-14.27l-0.84,0l2.77-6.31l0.36,0.01
		c0.58,0.01,58,1.53,91.37,15.9l0.33,0.68L256.1,133.85z M248.38,131.81l7.22,0.88l2.78-3.78c-31.86-13.45-85.04-15.39-89.97-15.54
		l-1.8,4.11C213.8,117.78,246.61,131.07,248.38,131.81"/>
	<polygon class="st2" points="248.24,132.34 248.24,170.32 259.23,168.89 259.23,128.68 	"/>
	<path class="st1" d="M247.69,170.94v-39l11.54-3.86l0.55,0.24v0.54v40.51L247.69,170.94z M248.79,132.73v36.97l9.9-1.29v-38.98
		L248.79,132.73z"/>
	<polygon class="st6" points="112.1,95 121.12,94.35 130.86,119.63 120.96,118.67 	"/>
	<path class="st1" d="M131.69,120.26l-11.12-1.09l-9-24.06l-0.05-0.62l9.97-0.71L131.69,120.26z M121.35,118.16l8.68,0.85
		l-9.28-24.08l-7.88,0.57L121.35,118.16z"/>
	<polygon class="st6" points="122.16,143.3 127.07,141.93 132.71,152.08 128.76,154.9 	"/>
	<path class="st1" d="M128.59,155.69l-6.62-11.63l-0.4-1.16l5.77-1.61l6.08,10.95L128.59,155.69z M122.98,143.64l5.95,10.46
		l3.06-2.18l-5.19-9.34L122.98,143.64z"/>
	<path class="st6" d="M145.83,197.08c0,0-1.53-23.83,0.97-38.65l-14.09-0.72C132.71,157.72,137.54,186.7,145.83,197.08"/>
	<path class="st1" d="M146.49,198.86l-1.08-1.44c-8.29-10.38-13.04-38.43-13.24-39.62l-0.11-0.67l15.38,0.79l-0.1,0.61
		c-2.46,14.58-0.97,38.28-0.96,38.52L146.49,198.86 M133.36,158.3c0.75,4.18,5.03,26.78,11.82,36.97c-0.29-5.81-0.98-24,0.97-36.31
		L133.36,158.3"/>
	<path class="st6" d="M140.6,165.77c0,0,8.69-3.94,11.27-4.51c0,0,2.42-23.43,8.05-31.72l-24.64-3.95
		C135.28,125.59,133.03,152.72,140.6,165.77"/>
	<path class="st1" d="M140.38,166.47l-0.25-0.43c-7.57-13.04-5.48-39.38-5.39-40.49l0.05-0.59l26.06,4.17l-0.48,0.71
		c-5.49,8.08-7.93,31.24-7.96,31.47l-0.04,0.39l-0.39,0.08c-2.49,0.55-11.08,4.43-11.16,4.47L140.38,166.47z M135.79,126.23
		c-0.26,3.97-1.47,27.01,5.04,38.84c1.75-0.78,7.95-3.53,10.54-4.24c0.34-3.08,2.64-22.58,7.65-30.88L135.79,126.23z"/>
	<path class="st6" d="M143.96,138.79c0,0,5.25-3.94,17.01-6.76c0,0,9.42-24.52,26.09-45.19l-43.48,3.08L143.96,138.79z"/>
	<path class="st1" d="M143.42,139.88l-0.4-50.46l44.18-3.13l0.27,0.9c-16.42,20.36-25.91,44.8-26,45.04l-0.1,0.27l-0.28,0.07
		c-11.51,2.76-16.75,6.63-16.8,6.67L143.42,139.88z M144.13,90.43l0.37,47.34c1.91-1.2,7.04-4.01,16.06-6.21
		c1.07-2.69,10.16-24.96,25.29-44.09L144.13,90.43z"/>
	<path class="st4" d="M151.46,93.31c0,0-7.49,28.61-7.83,45.81c0,0-4.16-4.44-6.33-8.62c-1.21,13.04,3.3,35.26,3.3,35.26
		s-2.9-1.53-4.67-3.54c0,0,3.46,21.01,9.9,34.86c-20.61-27.29-23.67-53.78-23.67-53.78s3.7,4.67,6.04,6.04
		c-3.62-7.41-14.49-34.22-16.1-54.34c2.17,5.39,7.97,14.25,10.87,16.5c-4.51-11.75-9.9-35.1-11.71-64.34l38.83,28.6L151.46,93.31z"
		/>
	<path class="st1" d="M145.4,197.41c-20.46-27.1-23.75-53.78-23.78-54.05l-0.05-0.47l0.8-0.22l0.22,0.28
		c0.03,0.04,2.17,2.72,4.16,4.56c-3.86-8.59-13.66-33.25-15.2-52.49l0.9-0.61l0.15,0.37c1.77,4.38,6.02,11.15,9.01,14.59
		c-4.29-12.25-9.17-34.27-10.9-62.2l39.9,28.27l1.39,17.9l-0.02,0.09c-0.07,0.28-7.14,28.41-7.48,45.35l-1.05,1.07
		c-0.16-0.15-3.43-3.96-5.74-7.57c-0.68,12.97,3.38,33.14,3.42,33.35l-0.76,0.81c-0.1-0.05-1.95-1.24-3.61-2.67
		c0.97,5.24,4.27,21.68,9.56,33.05L145.4,197.41z M123.01,145.17c1.09,6.19,5.59,26.43,20.46,47.73
		c-5.21-13.42-8.04-30.4-8.07-30.59l-0.31-1.88l1.26,1.43c1.04,1.18,2.52,2.21,3.49,2.82c-0.9-4.8-4.12-22.99-3.08-34.23l0.17-1.85
		l0.86,1.65c1.53,2.94,4.13,6.56,5.53,7.97c0.62-16.67,7.16-43.24,7.59-44.95l-1.34-17.22l-37.69-27.76
		c1.9,29.09,7.22,51.59,11.6,63.02l0.7,1.83l-1.55-1.2c-2.44-1.9-6.94-8.42-9.66-13.75c2.5,20.46,13.08,45.52,15.72,50.92l0.79,1.62
		l-1.56-0.91C126.38,148.91,124.32,146.68,123.01,145.17"/>
	<path class="st4" d="M111.26,47.16c0,0,15.5,23.68,40.2,46.16c5.28-1.87,25.72-6.47,35.6-6.47c0,0-29.81-20.44-36.96-31
		C131.53,54.31,111.26,47.16,111.26,47.16"/>
	<path class="st1" d="M151.33,93.94l-0.24-0.22c-24.46-22.27-40.13-46.03-40.28-46.26l-0.08-0.13l-0.06-0.96l0.78,0.27
		c0.2,0.07,20.42,7.15,38.69,8.66l0.26,0.02l0.15,0.22c7.01,10.35,36.52,30.65,36.82,30.86l0.49,0.34l-0.54,0.66h-0.26
		c-9.8,0-30.15,4.57-35.41,6.44L151.33,93.94z M112.62,48.19c3.64,5.29,18.05,25.41,38.96,44.5c5.44-1.84,23.6-5.92,33.78-6.36
		c-5.97-4.17-29.04-20.59-35.58-29.97C134.37,55.05,117.69,49.86,112.62,48.19"/>
	<polygon class="st7" points="260.6,222.74 279.57,207.43 279.51,213.64 260.51,230.37 	"/>
	<path class="st7" d="M279.57,207.43c0,0-11.45-7.94-16.44-10.24c-4.99-2.3-51-23.61-51-23.61l-16.09,6.89l-13.64,7.16l0,0.01
		c31.27,5.27,62.3,23.08,78.19,35.09L279.57,207.43"/>
	<path class="st1" d="M259.96,230.62l0.09-8.14l19.49-15.73l0.57,0.4l-0.07,6.74l-19.52,17.2L259.96,230.62z M261.14,223l-0.07,6.15
		l17.89-15.76l0.05-4.81L261.14,223"/>
	<path class="st1" d="M260.61,223.43l-0.34-0.26c-17.18-12.98-47.9-29.92-77.95-34.99l-0.45-0.08l0.03-0.8l0.26-0.15l13.64-7.16
		l16.35-7.01l0.22,0.1c0,0,46,21.31,51,23.61c4.56,2.1,14.24,8.71,16.19,10.05c0.18,0.12,0.29,0.2,0.33,0.23l0.24,0.17l-0.01,0.54
		L260.61,223.43 M184.06,187.39c29.55,5.37,59.49,21.87,76.52,34.66l18.07-14.59c-2.42-1.66-11.52-7.82-15.76-9.77
		c-4.79-2.21-47.34-21.91-50.78-23.51l-15.86,6.8L184.06,187.39"/>
	<path class="st8" d="M260.51,230.36c-13.35-10.81-42.17-30.05-78.11-37.44v-5.28c31.86,5.03,62.29,23.08,78.19,35.09L260.51,230.36
		"/>
	<path class="st1" d="M261.05,230.63l-0.52,0.45l-0.36-0.29c-8.27-6.7-38.31-29.19-77.87-37.33l-0.43-0.09v-5.26l0.4-0.6l0.05-0.44
		l0.18,0.03c29.68,4.68,59.98,21.25,78.44,35.19l0.22,0.17L261.05,230.63 M182.95,192.47c38.3,8,67.65,29.3,77.02,36.76l0.07-6.24
		c-18.24-13.73-47.94-29.95-77.1-34.72L182.95,192.47"/>
	<path class="st9" d="M186.33,162.96c0,0,7.99-3.16,7.99-14.91c0-11.48-13.18-15.53-23.5-14.22l-0.34,49.66h7.17l0.34-17.67
		l7.21,15.57l7.87-3.71L186.33,162.96z M184.16,150.65c-0.38,7.06-5.96,5.96-5.96,5.96l0.28-14.19
		C180.96,142.42,184.55,143.59,184.16,150.65"/>
	<path class="st1" d="M178.72,184.59h-9.34l0.36-51.71l0.95-0.12c1.29-0.16,2.61-0.24,3.94-0.24c10.35,0,20.79,4.81,20.79,15.55
		c0,9.9-5.35,14.07-7.66,15.41l6.76,14.75l-9.85,4.64L179,170.58L178.72,184.59z M171.58,182.4h5l0.42-21.33l8.74,18.87l5.9-2.78
		l-6.78-14.79l1.07-0.42c0.29-0.12,7.3-3.09,7.3-13.89c0-9.23-9.34-13.36-18.6-13.36c-0.91,0-1.82,0.04-2.72,0.12L171.58,182.4z
		 M179.01,157.77c-0.58,0-0.97-0.07-1.02-0.08l-0.9-0.18l0.31-16.18h1.07c1.96,0,3.61,0.65,4.77,1.88c1.51,1.6,2.18,4.12,2,7.51
		C184.9,157.26,180.38,157.77,179.01,157.77 M179.55,143.61l-0.23,11.97c1.67-0.1,3.55-1.1,3.76-4.98c0.15-2.76-0.33-4.74-1.41-5.89
		C181.12,144.14,180.42,143.77,179.55,143.61"/>
	<path class="st9" d="M202.43,175.87l6.44-6.53l-9.16-23.27l-9.51,27.99l6.32,0.53l0.64-2.24l4.53,0.6L202.43,175.87z
		 M198.62,167.23l0.87-3.03l0.82,3.25L198.62,167.23z"/>
	<path class="st1" d="M201.84,178.02l-1.03-4.09l-2.87-0.38l-0.63,2.2l-8.61-0.72l10.07-29.63l1.61-0.58l9.75,24.77L201.84,178.02z
		 M196.36,171.14l6.2,0.82l0.45,1.76l4.58-4.64l-7.81-19.84l-8.11,23.85l4.04,0.34L196.36,171.14z M201.75,168.75l-4.54-0.6
		l2.33-8.15L201.75,168.75z"/>
	<path class="st9" d="M207.91,147.97v29.38c0,0,4.01,0.98,5.57,1.39l0.41-9.24l9.81,12.81l-0.96-30.24l-6.33-1.65l-3.91,7.54
		L207.91,147.97z"/>
	<path class="st1" d="M224.9,185.67l-10.05-13.13l-0.33,7.58l-1.3-0.34c-1.56-0.4-5.56-1.38-5.56-1.38l-0.83-0.21v-31.69l1.35-0.61
		l4.39,9.57l3.28-6.33l7.97,2.08L224.9,185.67z M212.93,166.45l9.57,12.5l-0.82-26.03l-4.7-1.23l-4.53,8.75l-3.44-7.49v23.53
		c0.88,0.22,2.29,0.56,3.45,0.85L212.93,166.45z"/>
	<path class="st9" d="M234.15,163.61l5.71-1.55c0,0-1.1-5.72-5.02-6.93c-3.93-1.21-5.94-0.84-7.33-0.22
		c-1.39,0.62-2.66,2.62-2.66,4.62v19.49c0,0.75,1.15,3.36,2.94,4.42c1.79,1.06,5.83,2.45,6.75,2.68c0.92,0.23,4.45,0.07,4.96-2.68
		c0.52-2.75,0.35-11.98,0.35-11.98l-7.49-2.88v6.69l2.93,0.97c0,0,0,2.95-1.44,3.19c-1.44,0.23-2.94-1.39-2.94-1.91
		c0-0.52,0.06-14.49,0.06-15.29c0-0.81,0.49-1.47,1.4-1.47C233.29,160.76,234.15,161.64,234.15,163.61"/>
	<path class="st1" d="M235.33,187.29c-0.28,0-0.69-0.02-1.04-0.1c-0.97-0.24-5.13-1.66-7.04-2.8c-2.12-1.26-3.48-4.23-3.48-5.36
		v-19.49c0-2.32,1.45-4.79,3.3-5.62c2.18-0.98,4.61-0.91,8.1,0.17c4.5,1.39,5.72,7.5,5.77,7.76l0.19,0.99l-8.07,2.19v-1.43
		c0-1.21-0.4-1.75-0.69-1.75c-0.14,0-0.31,0-0.31,0.38c0,0.3-0.01,2.45-0.02,5.05l8.89,3.42l0.01,0.74
		c0.01,0.38,0.17,9.38-0.37,12.2C240.09,186.34,237.44,187.29,235.33,187.29 M230.37,155.43c-1.2,0-1.95,0.28-2.41,0.48
		c-0.95,0.43-2.01,2.02-2.01,3.63v19.49c0.03,0.45,0.98,2.63,2.41,3.48c1.64,0.97,5.53,2.33,6.46,2.56
		c0.06,0.01,0.24,0.04,0.51,0.04c0.28,0,2.77-0.05,3.12-1.86c0.41-2.17,0.37-8.8,0.34-11.03l-5.32-2.05v4.32l2.93,0.97v0.79
		c0,0.65-0.11,3.9-2.36,4.26c-1.29,0.21-2.48-0.56-3-1c-0.36-0.31-1.21-1.12-1.21-1.98c0-0.23,0.01-3.13,0.03-6.34
		c0.02-4.01,0.03-8.5,0.03-8.95c0-1.48,1.05-2.56,2.49-2.56c1.16,0,2.32,0.8,2.72,2.55l3.44-0.93c-0.47-1.53-1.66-4.38-4.01-5.11
		C232.91,155.68,231.52,155.43,230.37,155.43 M232.01,177.37c0.21,0.33,1.01,1.1,1.68,0.98c0.18-0.1,0.37-0.69,0.47-1.34l-2.14-0.71
		C232.01,176.8,232.01,177.17,232.01,177.37"/>
	<polygon class="st9" points="251.54,168.07 251.54,161.31 241.78,157.58 241.78,189.26 251.94,194.17 251.94,186.5 247.32,184.47 
		247.42,179.08 250.55,180.14 250.55,173.41 247.55,172.45 247.66,166.89 	"/>
	<path class="st1" d="M253.03,195.91l-12.34-5.96v-33.96l11.95,4.57v8.98l-3.9-1.19l-0.07,3.31l2.98,0.96v9.05l-3.16-1.07
		l-0.06,3.17l4.6,2.01L253.03,195.91L253.03,195.91z M242.87,188.58l7.98,3.85v-5.22l-4.63-2.03l0.15-7.62l3.1,1.05v-4.41
		l-3.01-0.97l0.16-7.82l3.85,1.17v-4.53l-7.58-2.9L242.87,188.58L242.87,188.58z"/>
	<path class="st9" d="M268.41,193.71l-3.61-10.67c2.7-1.21,3.73-3.98,3.79-7.68c0.06-3.7-1.13-7.13-4.77-9.1
		c-2.13-1.16-9.35-4.4-9.35-4.4v32.72c1.96,1.04,5.25,2.83,5.25,2.83l0.23-9.29l4.1,12l2.28-0.68
		C266.88,197.48,267.56,195.56,268.41,193.71 M259.78,178.59v-7.73c0,0,2.6,1.61,2.6,4.37
		C262.38,177.55,259.78,178.59,259.78,178.59"/>
	<path class="st1" d="M263.36,201.47l-2.47-7.22l-0.12,4.97l-1.57-0.85c0,0-3.28-1.78-5.24-2.82l-0.58-0.31v-33.57l1.36-0.81
		c0.3,0.13,7.46,3.27,9.61,4.44c3.57,1.93,5.41,5.42,5.34,10.08c-0.06,4.03-1.23,6.73-3.55,8.18l3.45,10.21l-0.18,0.39
		c-0.78,1.71-1.44,3.53-2.02,5.57l-0.16,0.58L263.36,201.47 M259.01,181.98l5.73,16.79l0.7-0.21c0.52-1.76,1.11-3.38,1.79-4.91
		l-3.79-11.2l0.91-0.41c2.09-0.94,3.08-3.06,3.14-6.7c0.06-3.85-1.35-6.59-4.19-8.13c-1.48-0.8-5.51-2.65-7.74-3.67v30.38
		c1,0.53,2.18,1.17,3.11,1.67L259.01,181.98 M258.69,180.2v-11.31l1.67,1.04c0.13,0.08,3.11,1.97,3.11,5.3
		c0,3.02-3.15,4.32-3.29,4.37L258.69,180.2 M260.87,173.62v2.8c0.24-0.33,0.41-0.73,0.41-1.19
		C261.29,174.63,261.12,174.09,260.87,173.62"/>
	<path class="st9" d="M274.84,182.66c-1.64-2.92-2.18-5.66-1.43-6c0.75-0.35,1.9,0.64,2.77,2.66l4.64-2.27
		c-0.58-7.03-7.93-8.27-10.29-6.67c-2.89,1.96-3,6.35-3,9c0,3.31,3.98,9.12,6,12.23c2.02,3.12,2.08,6.75,0,7.04
		c-2.08,0.29-2.25-4.79-2.25-4.79l-3.46,0.98l-0.03-0.08c-0.52,1.25-0.98,2.52-1.36,3.81l0.52-0.16c0,0-5.8,6.08-0.08,5.5
		c4.23-0.43,13.8-3.41,13.8-3.41c0.15-1.2,0.17-3.48,0.13-4.8C280.63,190.18,276.44,185.52,274.84,182.66"/>
	<path class="st1" d="M266.16,205.05L266.16,205.05c-1.77,0-2.46-0.75-2.73-1.39c-0.65-1.51,0.68-3.58,1.82-4.98l0.13-0.42
		c0.39-1.32,0.86-2.64,1.4-3.92l1.11-2.65l0.62,1.82l3.81-1.08l0.05,1.39c0.07,1.84,0.6,3.6,1,3.75c0.15-0.02,0.3-0.06,0.44-0.36
		c0.42-0.91,0.09-3.04-1.19-5.01l-0.51-0.79c-2.26-3.45-5.66-8.67-5.66-12.04c0-2.45,0-7.55,3.48-9.91
		c0.77-0.52,1.88-0.81,3.13-0.81c4.06,0,8.42,2.85,8.87,8.29l0.06,0.74l-6.34,3.11l-0.45-1.06c-0.33-0.77-0.67-1.29-0.96-1.62
		c0.15,0.87,0.62,2.3,1.57,4.01c0.35,0.62,0.83,1.34,1.39,2.18c1.93,2.87,4.57,6.8,4.71,11.37c0.04,1.28,0.02,3.68-0.14,4.97
		l-0.09,0.7l-0.67,0.21c-0.39,0.12-9.72,3.02-14.02,3.46C266.68,205.04,266.41,205.05,266.16,205.05 M265.45,202.8
		c0.05,0,0.25,0.07,0.71,0.07c0.18,0,0.38-0.01,0.6-0.03c3.42-0.35,10.63-2.47,12.89-3.15c0.08-1.15,0.09-2.8,0.06-3.94
		c-0.12-3.94-2.56-7.57-4.34-10.22c-0.56-0.84-1.09-1.63-1.48-2.32c-1.23-2.19-2.26-5.07-1.78-6.53c0.19-0.59,0.56-0.87,0.84-0.99
		c0.24-0.11,0.5-0.17,0.77-0.17c1.06,0,2.1,0.85,2.95,2.36l2.96-1.45c-0.74-4.38-4.57-5.56-6.6-5.56c-0.79,0-1.5,0.16-1.9,0.43
		c-2.52,1.71-2.52,6.03-2.52,8.1c0,2.72,3.32,7.81,5.31,10.85l0.52,0.79c1.61,2.49,2.15,5.34,1.34,7.1
		c-0.42,0.91-1.16,1.48-2.11,1.61c-1.93,0.27-2.82-1.7-3.2-3.44l-2.74,2.88C266.45,200.52,265.35,202.26,265.45,202.8L265.45,202.8
		 M268.55,195.76c-0.15,0.39-0.3,0.77-0.44,1.16l2.35-0.71c-0.07-0.33-0.12-0.65-0.16-0.95L268.55,195.76"/>
	<path class="st7" d="M186.33,162.96c0,0,7.99-3.16,7.99-14.91c0-11.48-13.18-15.53-23.5-14.22l-0.34,49.66h7.17l0.34-17.67
		l7.21,15.57l7.87-3.71L186.33,162.96z M184.16,150.65c-0.38,7.06-5.96,5.96-5.96,5.96l0.28-14.19
		C180.96,142.42,184.55,143.59,184.16,150.65"/>
	<path class="st7" d="M202.43,175.87l6.44-6.53l-9.16-23.27l-9.51,27.99l6.32,0.53l0.64-2.24l4.53,0.6L202.43,175.87z
		 M198.62,167.23l0.87-3.03l0.82,3.25L198.62,167.23z"/>
	<path class="st7" d="M207.91,147.97v29.38c0,0,4.01,0.98,5.57,1.39l0.41-9.24l9.81,12.81l-0.96-30.24l-6.33-1.65l-3.91,7.54
		L207.91,147.97z"/>
	<path class="st7" d="M234.15,163.61l5.71-1.55c0,0-1.1-5.72-5.02-6.93c-3.93-1.21-5.94-0.84-7.33-0.22
		c-1.39,0.62-2.66,2.62-2.66,4.62v19.49c0,0.75,1.15,3.36,2.94,4.42c1.79,1.06,5.83,2.45,6.75,2.68c0.92,0.23,4.45,0.07,4.96-2.68
		c0.52-2.75,0.35-11.98,0.35-11.98l-7.49-2.88v6.69l2.93,0.97c0,0,0,2.95-1.44,3.19c-1.44,0.23-2.94-1.39-2.94-1.91
		c0-0.52,0.06-14.49,0.06-15.29c0-0.81,0.49-1.47,1.4-1.47C233.29,160.76,234.15,161.64,234.15,163.61"/>
	<polygon class="st7" points="251.54,168.07 251.54,161.31 241.78,157.58 241.78,189.26 251.94,194.17 251.94,186.5 247.32,184.47 
		247.42,179.08 250.55,180.14 250.55,173.41 247.55,172.45 247.66,166.89 	"/>
	<path class="st7" d="M268.41,193.71l-3.61-10.67c2.7-1.21,3.73-3.98,3.79-7.68c0.06-3.7-1.13-7.13-4.77-9.1
		c-2.13-1.16-9.35-4.4-9.35-4.4v32.72c1.96,1.04,5.25,2.83,5.25,2.83l0.23-9.29l4.1,12l2.28-0.68
		C266.88,197.48,267.56,195.56,268.41,193.71 M259.78,178.59v-7.73c0,0,2.6,1.61,2.6,4.37
		C262.38,177.55,259.78,178.59,259.78,178.59"/>
	<path class="st7" d="M274.84,182.66c-1.64-2.92-2.18-5.66-1.43-6c0.75-0.35,1.9,0.64,2.77,2.66l4.64-2.27
		c-0.58-7.03-7.93-8.27-10.29-6.67c-2.89,1.96-3,6.35-3,9c0,3.31,3.98,9.12,6,12.23c2.02,3.12,2.08,6.75,0,7.04
		c-2.08,0.29-2.25-4.79-2.25-4.79l-3.46,0.98l-0.03-0.08c-0.52,1.25-0.98,2.52-1.36,3.81l0.52-0.16c0,0-5.8,6.08-0.08,5.5
		c4.23-0.43,13.8-3.41,13.8-3.41c0.15-1.2,0.17-3.48,0.13-4.8C280.63,190.18,276.44,185.52,274.84,182.66"/>
	<polygon class="st7" points="154.59,138.55 169.74,134.02 170.83,133.84 182.53,137.78 189.29,149.75 199.58,145.76 201.17,149.8 
		207.57,147.18 210,152.5 216.07,150.18 222.4,151.84 222.58,157.34 227.17,154.68 237.83,158.48 240.48,156.98 251.54,161.31 
		251.54,163.58 254.12,161.62 265.41,171.03 266.08,172.39 270.18,170.13 280.82,177.04 271.49,184.8 280.67,200.51 280.82,201.47 
		266.54,213.11 256.6,205.83 251.08,203 247.04,206.17 241,199.05 238.58,201.03 229.13,189.67 224.66,193.06 212.16,186.3 
		209.49,188.34 206.36,182.23 200.34,186 187.63,182.07 178.47,186.72 169.18,185.74 161.88,189.24 158.3,170.43 	"/>
	<polygon class="st1" points="154.17,138.81 153.85,137.77 169.76,132.87 170.08,133.91 	"/>
	<polygon class="st1" points="184.43,151.68 184.16,150.65 200.39,144.83 200.27,146.06 	"/>
	<polygon class="st1" points="193.4,153.81 192.95,152.81 208.14,145.92 208.59,146.92 	"/>
	<polygon class="st1" points="203.24,156.32 202.77,155.33 215.84,149.15 216.07,150.19 	"/>
	<polygon class="st1" points="210.37,159.03 209.87,158.06 222.5,151.59 222.99,152.56 	"/>
	<polygon class="st1" points="214.23,161.62 213.77,160.63 227.21,153.84 227.67,154.83 	"/>
	<polygon class="st1" points="228.19,163.92 227.67,162.96 240.68,155.99 241.25,156.92 	"/>
	<polygon class="st1" points="241.22,169.84 240.68,168.89 254.27,161.16 255.32,161.85 	"/>
	<polygon class="st1" points="258.79,178.21 258.2,177.29 269.91,169.47 270.94,170.14 	"/>
	<polygon class="st1" points="269.87,186.23 269.24,185.33 281.34,176.8 281.97,177.69 	"/>
	<polygon class="st1" points="265.9,214.18 265.21,213.34 280.97,200.5 281.66,201.34 	"/>
	<polygon class="st1" points="247.18,206.95 246.5,206.09 249.6,203.66 250.27,204.52 	"/>
	<polygon class="st1" points="162.83,189.54 162.31,188.54 169.06,185.3 169.53,186.28 	"/>
	
		<rect x="178.8" y="183.29" transform="matrix(0.8769 -0.4806 0.4806 0.8769 -65.6499 111.2914)" class="st1" width="11.38" height="1.09"/>
	<polygon class="st1" points="200.65,186.39 200.16,185.47 206.18,181.7 206.76,182.62 	"/>
	<polygon class="st1" points="210.05,190.73 209.37,189.77 211.74,188.06 212.4,188.93 	"/>
	<polygon class="st1" points="225.69,192.92 225.41,191.87 228.1,189.83 228.76,190.7 	"/>
	<path class="st9" d="M170.44,167.92c0,0,7.23-3.58,7.23-15.33c0-11.48-13.09-14.44-22.74-13.79l-0.35,49.66h7.17l0.34-17.67
		l8.46,19.39l7.87-3.71L170.44,167.92z M168.27,155.61c-0.38,7.06-5.96,5.96-5.96,5.96l0.28-14.19
		C165.07,147.38,168.65,148.55,168.27,155.61"/>
	<path class="st1" d="M170.01,191.63l-6.91-15.84l-0.27,13.75h-9.34l0.36-51.77l1.01-0.07c11-0.75,23.91,2.92,23.91,14.88
		c0,9.9-4.89,14.34-6.95,15.77l8.04,18.64L170.01,191.63z M161.11,165.77l10,22.93l5.9-2.78l-7.99-18.52l0.93-0.46
		c0.26-0.13,6.63-3.49,6.63-14.35c0-9.43-9.88-12.79-19.13-12.79c-0.48,0-0.95,0.01-1.43,0.03l-0.33,47.53h5L161.11,165.77z
		 M163.11,162.72c-0.58,0-0.97-0.08-1.02-0.08l-0.9-0.18l0.31-16.18h1.07c1.96,0,3.61,0.65,4.77,1.88c1.51,1.6,2.19,4.12,2,7.51
		C169.01,162.21,164.49,162.72,163.11,162.72 M163.66,148.56l-0.23,11.97c1.66-0.1,3.55-1.1,3.75-4.98c0.15-2.77-0.32-4.75-1.4-5.89
		C165.23,149.09,164.52,148.72,163.66,148.56"/>
	<path class="st9" d="M187.6,181.8l6.44,1.81L184.88,152l-9.51,28l6.32,0.52l0.64-2.25l4.53,0.6L187.6,181.8z M183.79,173.16
		l0.87-3.03l0.82,3.25L183.79,173.16z"/>
	<path class="st1" d="M195.64,185.13l-8.94-2.45l-0.71-2.82l-2.86-0.38l-0.63,2.2l-8.61-0.72l10.28-30.31l1.33-0.47L195.64,185.13z
		 M188.51,180.92l3.94,1.1l-7.65-26.39l-7.95,23.39l4.04,0.34l0.65-2.29l6.2,0.82L188.51,180.92z M186.93,174.67l-4.54-0.6
		l2.33-8.15L186.93,174.67z"/>
	<path class="st9" d="M194.04,154.23v29.38c0,0,4.01,0.98,5.57,1.38l0.4-9.23l9.81,12.81v-29.76l-6-1.99l-0.29,11.6L194.04,154.23z"
		/>
	<path class="st1" d="M210.92,189.83l-0.94,0.74l-9.01-11.76l-0.33,7.58l-1.31-0.34c-1.55-0.4-5.55-1.43-5.55-1.43l-0.83-1.32
		v-30.49l1.12-0.51l8.47,12.66l0.24-9.63l8.15,2.7L210.92,189.83L210.92,189.83z M199.06,172.71l9.68,12.64V159.6l-3.86-1.28
		l-0.34,13.57l-9.41-14.07v24.93c0.88,0.21,2.29,0.56,3.45,0.85L199.06,172.71z"/>
	<path class="st9" d="M220.86,170.32l5.71-1.55c0,0-1.1-5.48-5.02-6.7c-3.93-1.21-5.94-1.07-7.33-0.45
		c-1.39,0.62-2.65,2.62-2.65,4.62v19.49c0,0.75,1.15,3.36,2.94,4.42c1.79,1.06,5.83,2.45,6.75,2.68c0.92,0.23,4.45,0.07,4.96-2.68
		c0.52-2.75,0.35-11.98,0.35-11.98l-7.49-2.88v6.7l2.93,0.97c0,0,0,2.95-1.44,3.19c-1.44,0.23-2.94-1.39-2.94-1.91
		c0-0.52,0.06-14.49,0.06-15.3c0-0.81,0.49-1.47,1.4-1.47C219.99,167.48,220.86,168.36,220.86,170.32"/>
	<path class="st1" d="M222.03,194.01c-0.28,0-0.69-0.02-1.04-0.1c-0.97-0.24-5.13-1.66-7.05-2.8c-2.12-1.26-3.48-4.23-3.48-5.36
		v-19.49c0-2.32,1.45-4.79,3.3-5.62c1.95-0.88,4.39-0.75,8.1,0.4c4.49,1.39,5.72,7.28,5.77,7.53l0.2,1l-8.08,2.19v-1.43
		c0-1.21-0.4-1.75-0.68-1.75c-0.14,0-0.31,0-0.31,0.38c0,0.3-0.01,2.45-0.02,5.06l8.89,3.42l0.01,0.74
		c0.01,0.38,0.17,9.38-0.37,12.2C226.79,193.05,224.14,194.01,222.03,194.01 M216.64,162.25c-0.78,0-1.4,0.12-1.97,0.37
		c-0.95,0.43-2.01,2.02-2.01,3.63v19.49c0.03,0.45,0.98,2.63,2.41,3.48c1.64,0.97,5.53,2.33,6.46,2.56
		c0.06,0.01,0.24,0.04,0.51,0.04c0.28,0,2.77-0.05,3.11-1.86c0.41-2.17,0.37-8.8,0.34-11.02l-5.32-2.05v4.32l2.93,0.97v0.79
		c0,0.65-0.11,3.9-2.36,4.26c-1.29,0.21-2.48-0.56-3-1c-0.36-0.31-1.21-1.12-1.21-1.98c0-0.23,0.01-3.13,0.03-6.34
		c0.01-4.01,0.03-8.5,0.03-8.95c0-1.48,1.05-2.56,2.49-2.56c1.16,0,2.32,0.8,2.72,2.55l3.42-0.93c-0.48-1.48-1.67-4.17-4-4.89
		C219.33,162.54,217.83,162.25,216.64,162.25 M218.72,184.09c0.21,0.33,1.01,1.1,1.68,0.98c0.18-0.1,0.37-0.69,0.47-1.34l-2.14-0.71
		C218.72,183.52,218.72,183.89,218.72,184.09"/>
	<polygon class="st9" points="238.92,175.82 238.92,169.06 228.76,164.68 228.76,196.36 238.92,201.27 238.92,193.59 234.3,191.57 
		234.41,186.18 237.54,187.24 237.54,180.52 234.54,179.55 234.65,173.99 	"/>
	<path class="st1" d="M240.01,203.01l-12.34-5.96v-34.03l12.34,5.33v9.13l-4.3-1.84l-0.06,3.13l2.98,0.96v9.05l-3.15-1.07
		l-0.06,3.17l4.6,2.01L240.01,203.01L240.01,203.01z M229.85,195.68l7.98,3.85v-5.22l-4.63-2.03l0.15-7.62l3.1,1.06v-4.41
		l-3.01-0.97l0.16-7.99l4.24,1.82v-4.38l-7.98-3.44L229.85,195.68"/>
	<path class="st9" d="M262.4,190.88c-1.64-2.92-2.18-5.66-1.43-6c0.75-0.35,1.9,0.64,2.77,2.65l4.85-1.96
		c-1.9-7.91-7.5-8.77-10.51-6.98c-3,1.79-3,6.35-3,9c0,3.31,3.99,9.12,6.01,12.23c2.02,3.12,2.08,6.75,0,7.04
		c-2.08,0.29-2.26-4.79-2.26-4.79l-3.46,0.98l-4.15-12.29c2.7-1.21,3.17-3.98,3.23-7.68c0.06-3.7-1.79-7.5-4.21-9.1
		c-2.02-1.34-9.35-4.4-9.35-4.4v32.72c1.96,1.04,5.25,2.83,5.25,2.83l0.23-9.29l4.1,12l4.04-1.21c0,0,1.85,8.19,7.56,7.62
		c5.71-0.58,6.45-5.25,6.29-10.33C268.18,198.4,264,193.74,262.4,190.88 M246.19,186.32v-7.73c0,0,2.6,1.61,2.6,4.38
		C248.79,185.28,246.19,186.32,246.19,186.32"/>
	<path class="st1" d="M261.5,215.38c-4.79,0-6.98-5.06-7.74-7.38l-3.99,1.2l-2.47-7.22l-0.12,4.97l-1.57-0.85l-5.82-3.19l0.1-34.61
		c0,0,8.85,3.4,10.94,4.78c2.1,1.39,3.74,4.12,4.4,7.08c0.52-1,1.25-1.88,2.29-2.5c1.03-0.61,2.24-0.94,3.49-0.94
		c1.54,0,6.71,0.62,8.63,8.6l0.22,0.92l-6.71,2.72l-0.42-0.98c-0.33-0.77-0.67-1.29-0.95-1.62c0.15,0.86,0.61,2.3,1.57,4
		c0.35,0.62,0.83,1.34,1.39,2.18c1.93,2.87,4.56,6.8,4.71,11.37c0.1,3.2,0.33,10.68-7.27,11.45
		C261.94,215.36,261.72,215.38,261.5,215.38 M255.31,205.26l0.26,1.14c0.01,0.07,1.6,6.8,5.93,6.8c0.15,0,0.3-0.01,0.46-0.02
		c4.01-0.41,5.5-2.99,5.31-9.21c-0.13-3.94-2.56-7.57-4.34-10.22c-0.56-0.84-1.09-1.63-1.48-2.32c-1.23-2.19-2.26-5.06-1.78-6.54
		c0.19-0.59,0.56-0.87,0.84-0.99c0.24-0.11,0.5-0.17,0.77-0.17c1.07,0,2.13,0.87,2.99,2.42l3.01-1.22
		c-1.15-3.79-3.45-6.02-6.26-6.02c-0.85,0-1.69,0.22-2.37,0.63c-2.47,1.47-2.47,5.6-2.47,8.06c0,2.73,3.32,7.81,5.31,10.85l0.52,0.8
		c1.61,2.48,2.15,5.34,1.34,7.1c-0.42,0.91-1.17,1.48-2.11,1.61c-2.33,0.32-3.12-2.59-3.38-4.46l-3.19,0.9l-4.8-14.22l0.9-0.4
		c2.09-0.94,2.53-3.17,2.59-6.7c0.05-3.23-1.55-6.74-3.72-8.18c-1.37-0.9-5.43-2.7-7.66-3.66v30.42c1,0.53,2.18,1.17,3.11,1.67
		l0.34-13.61l5.73,16.79L255.31,205.26 M259.88,200.65l0.05,1.39c0.07,1.84,0.6,3.6,1,3.75c0.15-0.02,0.3-0.06,0.44-0.36
		c0.42-0.91,0.09-3.04-1.19-5.01l-0.51-0.79c-1.87-2.86-4.53-6.94-5.39-10.17c-0.42,0.7-0.98,1.32-1.73,1.81l3.53,10.44
		L259.88,200.65 M245.1,187.93v-11.31l1.67,1.04c0.13,0.08,3.12,1.97,3.11,5.3c0,3.02-3.15,4.32-3.28,4.37L245.1,187.93
		 M247.28,181.36v2.8c0.24-0.33,0.41-0.72,0.41-1.19C247.7,182.36,247.53,181.82,247.28,181.36"/>
	<path class="st8" d="M170.44,167.92c0,0,7.23-3.58,7.23-15.33c0-11.48-13.09-14.44-22.74-13.79l-0.35,49.66h7.17l0.34-17.67
		l8.46,19.39l7.87-3.71L170.44,167.92z M168.27,155.61c-0.38,7.06-5.96,5.96-5.96,5.96l0.28-14.19
		C165.07,147.38,168.65,148.55,168.27,155.61"/>
	<path class="st8" d="M187.6,181.8l6.44,1.81L184.88,152l-9.51,28l6.32,0.52l0.64-2.25l4.53,0.6L187.6,181.8z M183.79,173.16
		l0.87-3.03l0.82,3.25L183.79,173.16z"/>
	<path class="st8" d="M194.04,154.23v29.38c0,0,4.01,0.98,5.57,1.38l0.4-9.23l9.81,12.81v-29.76l-6-1.99l-0.29,11.6L194.04,154.23z"
		/>
	<path class="st8" d="M220.86,170.32l5.71-1.55c0,0-1.1-5.48-5.02-6.7c-3.93-1.21-5.94-1.07-7.33-0.45
		c-1.39,0.62-2.65,2.62-2.65,4.62v19.49c0,0.75,1.15,3.36,2.94,4.42c1.79,1.06,5.83,2.45,6.75,2.68c0.92,0.23,4.45,0.07,4.96-2.68
		c0.52-2.75,0.35-11.98,0.35-11.98l-7.49-2.88v6.7l2.93,0.97c0,0,0,2.95-1.44,3.19c-1.44,0.23-2.94-1.39-2.94-1.91
		c0-0.52,0.06-14.49,0.06-15.3c0-0.81,0.49-1.47,1.4-1.47C219.99,167.48,220.86,168.36,220.86,170.32"/>
	<polygon class="st8" points="238.92,175.82 238.92,169.06 228.76,164.68 228.76,196.36 238.92,201.27 238.92,193.59 234.3,191.57 
		234.41,186.18 237.54,187.24 237.54,180.52 234.54,179.55 234.65,173.99 	"/>
	<path class="st8" d="M262.4,190.88c-1.64-2.92-2.18-5.66-1.43-6c0.75-0.35,1.9,0.64,2.77,2.65l4.85-1.96
		c-1.9-7.91-7.5-8.77-10.51-6.98c-3,1.79-3,6.35-3,9c0,3.31,3.99,9.12,6.01,12.23c2.02,3.12,2.08,6.75,0,7.04
		c-2.08,0.29-2.26-4.79-2.26-4.79l-3.46,0.98l-4.15-12.29c2.7-1.21,3.17-3.98,3.23-7.68c0.06-3.7-1.79-7.5-4.21-9.1
		c-2.02-1.34-9.35-4.4-9.35-4.4v32.72c1.96,1.04,5.25,2.83,5.25,2.83l0.23-9.29l4.1,12l4.04-1.21c0,0,1.85,8.19,7.56,7.62
		c5.71-0.58,6.45-5.25,6.29-10.33C268.18,198.4,264,193.74,262.4,190.88 M246.19,186.32v-7.73c0,0,2.6,1.61,2.6,4.38
		C248.79,185.28,246.19,186.32,246.19,186.32"/>
	<path class="st7" d="M110.46,177.4l15.65,7.16c-36.21,4.72-63.13,16.82-79.15,26l-0.01-0.01l-7.79-5.05l1.68-11.51l29.38-25.41
		l34.21,2.83L110.46,177.4"/>
	<path class="st1" d="M46.75,211.31l-0.21-0.37l-7.98-5.17l1.76-12.06l0.15-0.13l29.55-25.56l34.64,2.87l6.11,6.07l15.87,7.26
		l-0.14,0.85l-0.33,0.04c-36.01,4.69-62.81,16.69-78.95,25.93L46.75,211.31 M39.74,205.23l7.23,4.69
		c15.97-9.11,42.16-20.8,77.18-25.65l-14.09-6.49l-5.9-5.86l-33.78-2.8l-29.05,25.13L39.74,205.23"/>
	<polygon class="st7" points="46.94,210.55 39.15,205.5 39.15,213.4 46.94,218.45 	"/>
	<path class="st1" d="M47.49,218.61l-0.54,0.5l-8.34-5.41v-9.2l8.89,5.76L47.49,218.61L47.49,218.61z M39.69,213.1l6.7,4.35v-6.6
		l-6.7-4.35V213.1"/>
	<polygon class="st1" points="34.05,228.39 17.58,212.96 18.32,212.16 34.8,227.59 	"/>
	<path class="st9" d="M122.89,154.55l-2.8-5.03l-13.88-6.21c-0.91-0.57-1.81-0.87-2.37-0.87c-1.55,0-7.94,0.63-7.94,0.63v1.4
		l-1.78-0.72l-10.22,1.87l-0.01,1.14l-1.66-0.77l-5.75,0.94l-1.38,3.92l-3.69-2.15l-2.18,4.55l-6.65-3.31l-5.42,1.73l0.26,3.02
		l-1.81-0.9c-1.34-1.11-2.93-1.4-4.62-0.97c-1.41,0.36-2.86,1.39-4.22,2.91l-9.66-5.75c-1.69-1.28-4.03-0.82-4.97-0.56
		c-1.32,0.36-14.18,4.95-14.18,4.95v58.2l16.47,15.43l2.01-4.89l2.27-23.5l5.76-0.87l8.57-9.15l7.32,4.67l12-11.43l7.86,6.85l2-8.78
		l8.97,6.26l1.15-7.41l5.52,3.18l12.16-5.27l2.64,1.45l4.53-5.52l4.27,3.12l-0.64-13.44L122.89,154.55"/>
	<path class="st1" d="M34.42,229.48l-0.35-0.33l-17.21-16.12v-59.45l0.73-0.26c0.53-0.19,12.91-4.6,14.25-4.97
		c0.56-0.15,1.43-0.34,2.41-0.34c1.36,0,2.52,0.35,3.46,1.04l8.87,5.28c1.35-1.35,2.77-2.24,4.14-2.58
		c2.01-0.51,3.89-0.14,5.43,1.07l-0.17-1.93l6.67-2.13l6.05,3.01l2.21-4.62l3.57,2.08l1.15-3.28l6.72-1.09l0.43,0.2l0-0.35
		l11.42-2.09l0.57,0.23v-0.76l0.98-0.1c0.26-0.03,6.47-0.64,8.05-0.64c0.8,0,1.87,0.37,2.89,0.99l14.15,6.33l3.18,5.72l-2.14,8.95
		l0.74,15.56l-5.28-3.86l-4.45,5.43l-2.96-1.63l-12.17,5.27l-4.62-2.66L92,189.03l-9.08-6.33l-2.05,8.98l-8.49-7.39l-11.9,11.33
		l-7.27-4.64l-8.21,8.77l-5.29,0.8l-2.27,22.97L34.42,229.48 M19.04,212.08l14.97,14.03l1.35-3.28l2.34-24.19l6.23-0.95l8.94-9.54
		l7.36,4.7l12.1-11.52l7.23,6.3l1.95-8.58l8.86,6.18l1.12-7.26l6.43,3.7l12.15-5.26l2.31,1.27l4.61-5.62l3.26,2.38l-0.54-11.31
		l2.02-8.43l-2.42-4.34l-13.69-6.14c-0.88-0.55-1.56-0.7-1.79-0.7c-1.02,0-4.51,0.31-6.85,0.53v2.03l-2.99-1.21l-9.02,1.65
		l-0.02,1.93l-2.89-1.35l-4.78,0.78l-1.6,4.55l-3.8-2.22l-2.15,4.49l-7.25-3.61l-4.16,1.33l0.36,4.09l-3.76-1.9
		c-1.04-0.85-2.27-1.1-3.66-0.75c-1.16,0.29-2.43,1.18-3.67,2.58l-0.6,0.67l-10.54-6.28c-0.56-0.42-1.3-0.64-2.2-0.64
		c-0.73,0-1.4,0.14-1.83,0.26c-0.98,0.27-9.39,3.25-13.38,4.67V212.08"/>
	<path class="st7" d="M122.89,154.55l-2.8-5.03l-13.88-6.21c-0.91-0.57-1.81-0.87-2.37-0.87c-1.55,0-7.94,0.63-7.94,0.63v1.4
		l-1.78-0.72l-10.22,1.87l-0.01,1.14l-1.66-0.77l-5.75,0.94l-1.24,3.52l-3.83-1.74l-2.18,4.55l-6.65-3.31l-5.42,1.73l0.19,2.23
		c0,0-2.06-0.94-2.67-0.73c-1.12-0.58-2.37-0.68-3.69-0.35c-1.41,0.36-2.86,1.39-4.22,2.91l-9.66-5.75
		c-1.69-1.28-4.03-0.82-4.97-0.56c-1.32,0.36-14.18,4.95-14.18,4.95v58.2l16.47,15.43l2.01-4.89l2.27-23.5l5.76-0.87l8.57-9.15
		l7.32,4.67l12-11.43l7.86,6.85l2-8.78l8.97,6.26l1.15-7.41l5.52,3.18l12.16-5.27l2.64,1.45l4.53-5.52l4.27,3.12l-0.64-13.44
		L122.89,154.55"/>
	<polygon class="st1" points="34.14,164.91 17.66,154.82 18.23,153.89 34.71,163.98 	"/>
	
		<rect x="44.97" y="145.9" transform="matrix(0.5115 -0.8593 0.8593 0.5115 -110.3898 114.5092)" class="st1" width="1.09" height="16.89"/>
	<polygon class="st1" points="68.45,160.15 54.67,153.16 55.19,152.2 68.95,159.18 	"/>
	<polygon class="st1" points="59.81,194.51 49.91,188.23 50.5,187.31 60.39,193.59 	"/>
	<polygon class="st1" points="84.1,155.22 70.62,148.31 71.12,147.34 84.59,154.25 	"/>
	<polygon class="st1" points="99.14,153.49 83.65,146.1 84.12,145.12 99.3,152.36 109.62,150.6 93.75,143.67 94.19,142.67 
		113.41,151.07 	"/>
	<polygon class="st1" points="112.43,151.06 95.66,143.56 96.11,142.57 112.87,150.06 	"/>
	<polygon class="st1" points="122.3,150.43 104.69,142.57 105.14,141.57 122.74,149.43 	"/>
	<polygon class="st1" points="111.34,172.99 103.5,171.03 103.76,169.98 111.61,171.93 	"/>
	<polygon class="st1" points="110.44,161.37 104.84,159.52 105.18,158.49 110.78,160.33 	"/>
	<polygon class="st1" points="98.68,183.31 89.52,179 89.99,178.01 99.15,182.32 	"/>
	<path class="st9" d="M48.6,159.25c-1.32,0.36-14.18,5.2-14.18,5.2v63.54c0,0,4.96-4.62,8.22-6.83v-17.88
		c11.96-4.5,11.33-10.87,11.55-14.06c0.23-3.18,0.32-22.34,0.32-26.79C54.51,157.97,49.92,158.88,48.6,159.25 M47.65,188.5
		c-0.05,1.04-0.5,3.09-4.73,4.78l0.13-22.98c0,0,1.87-0.86,2.46-1.13c0.59-0.27,2.5-0.23,2.5,1.36
		C48.01,172.12,47.69,187.45,47.65,188.5"/>
	<path class="st1" d="M33.33,228.46v-64.78l0.71-0.27c1.32-0.5,12.94-4.86,14.27-5.22c0.5-0.14,1.5-0.37,2.6-0.37
		c2.99,0,4.7,1.68,4.7,4.61c0,3.95-0.08,23.55-0.32,26.87c-0.01,0.23-0.03,0.47-0.04,0.73c-0.16,3.37-0.46,9.58-11.51,13.99v17.71
		l-0.48,0.32c-3.15,2.13-8.04,6.67-8.09,6.72l-0.75,0.7L33.33,228.46 M35.52,165.2v60.33c1.63-1.45,4.04-3.52,6.03-4.93v-18.07
		l0.71-0.26c10.4-3.92,10.66-9.18,10.81-12.33c0.01-0.28,0.02-0.54,0.04-0.78c0.22-3.04,0.32-21.52,0.32-26.72
		c0-1.7-0.75-2.42-2.52-2.42c-0.87,0-1.7,0.2-2.02,0.29C47.91,160.57,39.49,163.71,35.52,165.2 M41.81,194.89l0.14-25.3l3.09-1.42
		c0.32-0.15,0.74-0.23,1.19-0.23c1.68,0,2.86,1.06,2.86,2.58c0,1.75-0.32,17.06-0.36,18.02c-0.11,2.42-1.93,4.35-5.42,5.74
		L41.81,194.89 M44.13,171l-0.12,20.57c1.64-0.9,2.49-1.94,2.54-3.11c0.04-0.89,0.36-16.29,0.36-17.92c0-0.11,0-0.4-0.68-0.4
		c-0.16,0-0.26,0.02-0.29,0.03L44.13,171"/>
	<path class="st9" d="M64.11,195.38c4.05-0.23,9.83-7.7,9.83-19.99c0-12.28-3.91-16.51-8.6-15.33c-4.68,1.18-9.92,9.78-10.14,19.33
		C54.97,188.95,58.97,195.67,64.11,195.38"/>
	<path class="st1" d="M63.79,196.48L63.79,196.48c-1.92,0-3.74-0.83-5.27-2.39c-2.96-3.03-4.57-8.39-4.41-14.71
		c0.22-9.43,5.35-18.95,10.97-20.37c0.59-0.15,1.17-0.23,1.73-0.23c2.47,0,8.22,1.62,8.22,16.61c0,12.06-5.72,20.79-10.86,21.08
		C64.05,196.48,63.92,196.48,63.79,196.48 M66.81,160.97c-0.38,0-0.79,0.05-1.2,0.16c-4.13,1.04-9.1,9.27-9.32,18.3
		c-0.13,5.66,1.28,10.57,3.79,13.14c1.13,1.15,2.38,1.74,3.71,1.74h0c0.08,0,0.17,0,0.26-0.01c3.07-0.17,8.8-6.81,8.8-18.9
		C72.85,166.36,70.59,160.97,66.81,160.97"/>
	<polygon class="st9" points="71.35,159.88 77.31,157.75 80.58,166.16 84.77,156.47 89.72,163.71 91.73,154.55 98.23,153.43 
		91.5,185.95 85.04,174.72 80.81,188.13 	"/>
	<path class="st1" d="M80.84,191.67l-10.87-32.46l7.96-2.85l2.7,6.93l3.91-9.07l4.65,6.78l1.62-7.41l8.81-1.52l-7.64,36.91
		l-6.65-11.57L80.84,191.67z M72.72,160.54l8.05,24.06l3.97-12.59l6.27,10.9l5.82-28.14l-4.2,0.73l-2.38,10.91l-5.27-7.68
		l-4.45,10.32l-3.86-9.91L72.72,160.54z"/>
	<polygon class="st9" points="111.26,157.02 111.51,150.83 99.22,152.92 98.91,182.81 110.99,180.1 111.26,173.12 105.74,173.85 
		105.74,168.56 109.47,167.71 109.65,161.57 105.74,162.05 105.74,158.07 	"/>
	<path class="st1" d="M97.81,184.18L98.13,152l14.53-2.47l-0.34,8.4l-5.49,1.04v1.85l3.95-0.48l-0.24,8.26l-3.7,0.84v3.18l5.57-0.74
		l-0.36,9.12L97.81,184.18z M100.3,153.85l-0.28,27.6l9.91-2.22l0.19-4.85l-5.47,0.72v-7.41l3.76-0.85l0.12-4.03l-3.88,0.48v-6.12
		l5.56-1.05l0.16-3.97L100.3,153.85z"/>
	<path class="st9" d="M121.88,165.03c3.37-1.69,4.21-3.94,4.28-8.78c0.06-4.11-4.02-6.32-5.57-6.32c-1.55,0-7.94,0.63-7.94,0.63
		v29.16c1.05-0.27,5.14-1,5.14-1l0.18-8.19l4.91,6.87l5.14-3.59L121.88,165.03z M118.28,161.71v-6.21c0,0,2.76-0.37,2.83,2.21
		C121.21,161.39,118.28,161.71,118.28,161.71"/>
	<path class="st1" d="M111.56,181.13v-31.56l0.98-0.1c0.26-0.03,6.47-0.64,8.05-0.64c1.09,0,2.98,0.72,4.53,2.29
		c1.42,1.44,2.16,3.22,2.13,5.14c-0.06,4.29-0.71,7.12-3.79,9.12l6.08,8.69l-6.92,4.84l-3.64-5.08l-0.13,5.81l-0.88,0.16
		c-1.13,0.2-4.23,0.77-5.05,0.98L111.56,181.13z M113.74,151.55v26.81c0.98-0.2,2.18-0.42,2.98-0.56l0.23-10.57l6.19,8.66l3.36-2.35
		l-6.24-8.92l1.13-0.57c2.82-1.42,3.61-3.1,3.67-7.82c0.02-1.67-0.8-2.87-1.5-3.58c-1.14-1.16-2.5-1.64-2.97-1.64
		C119.57,151.02,116.08,151.33,113.74,151.55 M117.19,162.93v-8.37l0.94-0.14c0,0,0.2-0.03,0.51-0.03c2.14,0,3.51,1.26,3.56,3.29
		c0.1,3.7-2.44,4.96-3.8,5.11L117.19,162.93z M119.37,156.69v3.27c0.37-0.42,0.68-1.1,0.65-2.21
		C120.01,157.45,120,156.92,119.37,156.69"/>
	<polygon class="st8" points="111.26,157.02 111.51,150.83 99.22,152.92 98.91,182.81 110.99,180.1 111.26,173.12 105.74,173.85 
		105.74,168.56 109.47,167.71 109.65,161.57 105.74,162.05 105.74,158.07 	"/>
	<path class="st8" d="M121.88,165.03c3.37-1.69,4.21-3.94,4.28-8.78c0.06-4.11-4.02-6.32-5.57-6.32c-1.55,0-7.94,0.63-7.94,0.63
		v29.16c1.05-0.27,5.14-1,5.14-1l0.18-8.19l4.91,6.87l5.14-3.59L121.88,165.03z M118.28,161.71v-6.21c0,0,2.76-0.37,2.83,2.21
		C121.21,161.39,118.28,161.71,118.28,161.71"/>
	<path class="st8" d="M48.6,159.25c-1.32,0.36-14.18,5.2-14.18,5.2v63.54c0,0,4.96-4.62,8.22-6.83v-17.88
		c11.96-4.5,11.33-10.87,11.55-14.06c0.23-3.18,0.32-22.34,0.32-26.79C54.51,157.97,49.92,158.88,48.6,159.25 M47.65,188.5
		c-0.05,1.04-0.5,3.09-4.73,4.78l0.13-22.98c0,0,1.87-0.86,2.46-1.13c0.59-0.27,2.5-0.23,2.5,1.36
		C48.01,172.12,47.69,187.45,47.65,188.5"/>
	<path class="st8" d="M64.11,195.38c4.05-0.23,9.83-7.7,9.83-19.99c0-12.28-3.91-16.51-8.6-15.33c-4.68,1.18-9.92,9.78-10.14,19.33
		C54.97,188.95,58.97,195.67,64.11,195.38"/>
	<polygon class="st8" points="71.35,159.88 77.31,157.75 80.58,166.16 84.77,156.47 89.72,163.71 91.73,154.55 98.23,153.43 
		91.5,185.95 85.04,174.72 80.81,188.13 	"/>
	<polygon class="st1" points="70.6,159.87 56.22,151.76 56.75,150.81 71.14,158.92 	"/>
	<polygon class="st1" points="77.53,157.39 62.32,149.92 62.8,148.94 78.01,156.4 	"/>
	<polygon class="st1" points="97.66,153.42 81.92,145.83 82.4,144.85 98.13,152.43 	"/>
	<polygon class="st1" points="91.63,154.59 75.53,147.04 76,146.05 92.09,153.6 	"/>
	<path class="st8" d="M46.94,218.45c15.65-10,42.25-23.29,79.15-28.78l0-5.12c-36.21,4.72-63.13,16.82-79.15,26L46.94,218.45"/>
	<path class="st1" d="M46.4,218.45v-8.22l0.28-0.16c16.23-9.29,43.16-21.35,79.35-26.07l0.14,0.17l0.48,0.03l0,5.93l-0.46,0.07
		c-36.65,5.45-63.16,18.61-78.94,28.7l-0.3,0.19L46.4,218.45 M47.49,210.87v6.59c15.9-10.02,42.1-22.83,78.06-28.26l0-4.03
		C90.05,189.89,63.56,201.7,47.49,210.87"/>
	<path class="st6" d="M69.88,167.58c0,0-1.13-3.74-3-5.46c-2.79,1.46-6.34,11.38-6.46,15.09c0,0,1.49-0.74,2.94-0.95l-3.18,7.75
		l3.3-0.83L61.62,192c0,0,8.06-11.58,8.83-12.44c0.77-0.86-0.5-0.95-0.7-0.95h-3.73l5.12-7.18c0,0-2.48-0.29-4-0.09
		C67.14,171.35,69.51,167.95,69.88,167.58"/>
	<path class="st5" d="M60.89,193.69l2.12-10.01l-3.44,0.86l3.19-7.79c-1.15,0.28-2.17,0.78-2.18,0.79l-0.55,0.27l0.02-0.61
		c0.12-3.61,3.67-13.83,6.66-15.4l0.23-0.12l0.19,0.18c1.92,1.77,3.05,5.46,3.1,5.62l0.06,0.21l-0.16,0.16
		c-0.23,0.23-1.53,2.05-2.25,3.08c1.47-0.06,3.21,0.14,3.29,0.15l0.62,0.07l-5.07,7.11h3.02c0.17,0,1.01,0.03,1.25,0.56
		c0.14,0.3,0.04,0.64-0.28,1c-0.59,0.67-6.02,8.41-8.8,12.4L60.89,193.69z M63.97,182.68l-1.61,7.63c2.21-3.16,7.21-10.3,7.82-10.99
		c0.1-0.11,0.13-0.18,0.15-0.21c-0.09-0.06-0.36-0.13-0.57-0.13h-4.44l5.16-7.24c-0.82-0.07-2.28-0.16-3.28-0.03l-0.41,0.05v-0.42
		c0-0.14,0-0.14,1.3-1.96c0.84-1.18,1.22-1.67,1.39-1.89c-0.25-0.74-1.21-3.44-2.64-4.91c-1.12,0.78-2.53,3.12-3.84,6.38
		c-1.13,2.82-1.96,5.79-2.16,7.66c0.58-0.24,1.53-0.59,2.48-0.73l0.64-0.09l-3.14,7.67L63.97,182.68z"/>
	<path class="st4" d="M69.26,167.24c0,0-0.89-2.83-2.35-4.7c0,0-4.33,5.29-5.39,13.17c0,0,1.71-0.55,3.28-0.75l-3.75,8.29l3.07-0.89
		c0,0-1.06,4.26-1.47,7.06c0,0,5.69-8.15,7.23-10.27l-4.67,0.17l4.67-7.71h-3.65C66.23,171.61,68.38,168.12,69.26,167.24"/>
	<polygon class="st10" points="279.44,184.24 279.44,181.76 280.18,181.76 280.18,181.38 278.18,181.38 278.18,181.76 
		278.93,181.76 278.93,184.24 	"/>
	<polygon class="st10" points="281.82,183.5 281.81,183.5 281.25,181.38 280.46,181.38 280.46,184.24 280.94,184.24 280.94,181.86 
		280.95,181.86 281.59,184.24 282.02,184.24 282.66,181.86 282.67,181.86 282.67,184.24 283.14,184.24 283.14,181.38 282.37,181.38 
			"/>
</g>
</svg>
